{"title":"Great Grand Masti (2016) 1 CD DVDSCR - XviD MP3 [DDR]","uid":15223339,"size":687022718,"categoryP":"video","categoryS":"movies","magnet":"?xt=urn:btih:2f74c8562f671728a7f08fcad308de6e817e075f&amp;dn=Great+Grand+Masti+%282016%29+1+CD+DVDSCR+-+XviD+MP3+%5BDDR%5D&amp;tr=udp%3A%2F%2Ftracker.leechers-paradise.org%3A6969&amp;tr=udp%3A%2F%2Fzer0day.ch%3A1337&amp;tr=udp%3A%2F%2Fopen.demonii.com%3A1337&amp;tr=udp%3A%2F%2Ftracker.coppersurfer.tk%3A6969&amp;tr=udp%3A%2F%2Fexodus.desync.com%3A6969","seeders":9,"leechers":1,"uploader":"SaM","files":3,"time":1467752043,"description":"- BollywooD MoviE -\r\n**- Great Grand Masti -**\r\n- 2016 -\r\n** 1 CD DvDSCR rip / XviD / MP3 **\r\n \nhttp://extraimago.com/image/akin \nhttp://extraimago.com/image/akis \nhttp://extraimago.com/image/aki7 \nhttp://extraimago.com/image/akic \nhttp://extraimago.com/image/aki1 \nhttp://extraimago.com/image/akiE \nhttp://extraimago.com/image/akiO \nhttp://extraimago.com/image/akiS\r\n\r\n[ Specs ]\r\nGeneral\r\nSource = MPEG DUMP @ (Thanks Lotty for this leak)\r\nFormat : AVI\r\nFormat/Info : Audio Video Interleave\r\nFile size : 650 MiB\r\nDuration : 2h 14mn\r\nOverall bit rate mode : Variable\r\nOverall bit rate : 678 Kbps\r\n\r\nVideo\r\nID : 0\r\nFormat : MPEG-4 Visual\r\nFormat profile : Advanced   \r\nFormat settings, BVOP : 2\r\nFormat settings, QPel : No\r\nFormat settings, GMC : No warppoints\r\nFormat settings, Matrix : Custom\r\nCodec ID : XVID\r\nCodec ID/Hint : XviD\r\nDuration : 2h 14mn\r\nBit rate : 589 Kbps\r\nWidth : 640 pixels\r\nHeight : 272 pixels\r\nDisplay aspect ratio : 2.35:1\r\nFrame rate : 23.976 (24000/1001) fps\r\nColor space : YUV\r\nChroma subsampling : 4:2:0\r\nBit depth : 8 bits\r\nScan type : Progressive\r\nCompression mode : Lossy\r\nBits/(Pixel*Frame) : 0.141\r\nStream size : 564 MiB (87%)\r\nWriting library : XviD 67\r\n\r\nAudio\r\nID : 1\r\nFormat : MPEG Audio\r\nFormat version : Version 1\r\nFormat profile : Layer 3\r\nMode : Joint stereo\r\nMode extension : MS Stereo\r\nCodec ID : 55\r\nCodec ID/Hint : MP3\r\nDuration : 2h 14mn\r\nBit rate mode : Variable\r\nBit rate : 80.0 Kbps\r\nChannel(s) : 2 channels\r\nSampling rate : 32.0 KHz\r\nCompression mode : Lossy\r\nStream size : 75.9 MiB (12%)\r\nAlignment : Aligned on interleaves\r\nInterleave, duration : 36 ms (0.86 video frame)\r\nInterleave, preload duration : 130 ms\r\n\r\nLanguage : Hindi\r\nDefault : Yes\r\n\r\nChapters: None on source\r\nSample: YES - included\r\n\r\nA DDR 8th Anniversary Exclusive Release...!","torrent":{"xt":"urn:btih:2f74c8562f671728a7f08fcad308de6e817e075f","amp;dn":"Great+Grand+Masti+%282016%29+1+CD+DVDSCR+-+XviD+MP3+%5BDDR%5D","amp;tr":["udp%3A%2F%2Ftracker.leechers-paradise.org%3A6969","udp%3A%2F%2Fzer0day.ch%3A1337","udp%3A%2F%2Fopen.demonii.com%3A1337","udp%3A%2F%2Ftracker.coppersurfer.tk%3A6969","udp%3A%2F%2Fexodus.desync.com%3A6969"],"infoHash":"2f74c8562f671728a7f08fcad308de6e817e075f","infoHashBuffer":{"type":"Buffer","data":[47,116,200,86,47,103,23,40,167,240,143,202,211,8,222,110,129,126,7,95]},"announce":[],"urlList":[]}}